# xmcd
# Track frame offsets:
# 150
# 4350
# 16717
# 29077
# 39657
# 50961
# 63851
# 77837
# 89707
# 101557
# 115185
# 137080
# 144369
# 162809
# 173699
# 184367
# 209128
# 226709
# 233159
# 238451
#
# Disc length: 3287 seconds
# Revision: 0
# Processed by: cddbd v1.5.2PL0 Copyright (c) Steve Scherf et al.
# Submitted via: VisiTrax 2.10.0.248 - For more info visit www.synapsa.com
#
DISCID=1c0cd514
DTITLE=Various Artist - Country Music Hall Of Fame [CD1]
DYEAR=2006
DGENRE=Country
TTITLE0=Charley Pride - Is Anybody Goin' To San Antone
TTITLE1=Brenda Lee - How Much Love
TTITLE2=Willie Nelson - Seven Spanish Angels
TTITLE3=Johnny Cash - If I Were A Carpenter
TTITLE4=Loretta Lynn - Hey Loretta
TTITLE5=Don Williams - Amanda
TTITLE6=Jerry Lee Lewis - Touching Home
TTITLE7=Merle Haggard - Okie From Muskogee
TTITLE8=Tom T. Hall - I Love
TTITLE9=Tammy Wynette - Stand By Your Man
TTITLE10=Marty Robbins - El Paso
TTITLE11=Willie Nelson - Luckenbach Texas
TTITLE12=Johnny Cash - Orange Blossom Special
TTITLE13=Jim Reeves - I Missed Me
TTITLE14=Boxcar Willie - Wabash Cannonball
TTITLE15=Brenda Lee - Dum Dum, Fool Number One, Too Many Rivers, Jambalaya
TTITLE16=Don Williams - I Believe In You
TTITLE17=Tammy Wynette - Welcome To My World
TTITLE18=Marty Robbins - A White Sport Coat
TTITLE19=Boxcar Willie - Tennessee Saturday Night
EXTD=
EXTT0=
EXTT1=
EXTT2=
EXTT3=
EXTT4=
EXTT5=
EXTT6=
EXTT7=
EXTT8=
EXTT9=
EXTT10=
EXTT11=
EXTT12=
EXTT13=
EXTT14=
EXTT15=
EXTT16=
EXTT17=
EXTT18=
EXTT19=
PLAYORDER=
